<svg xmlns="http://www.w3.org/2000/svg" width="12.641" height="15" viewBox="0 0 12.641 15">
  <g id="android" transform="translate(-17.078 -8.269)">
    <g id="Group_106" data-name="Group 106" transform="translate(17.078 8.269)">
      <g id="Group_105" data-name="Group 105">
        <path id="Path_69" data-name="Path 69" d="M111.7,15.023a.3.3,0,0,0,.3-.3v-.951a1.53,1.53,0,0,0-2.5-1.18,3.653,3.653,0,0,0-1.695-2.537l.717-1.336a.3.3,0,0,0-.533-.286l-.72,1.341a8.488,8.488,0,0,0-1.176-.487c-.952-.042-.323.077-.354.241s-.281.335.241.354a3.765,3.765,0,0,1,2.946,3.034h-6.5A3.911,3.911,0,0,1,105.5,9.878c.428-.034.319-.189.288-.354s.217-.3-.4-.221a10.251,10.251,0,0,0-1.266.455l-.713-1.33a.3.3,0,1,0-.533.286l.708,1.321a3.656,3.656,0,0,0-1.72,2.546,1.53,1.53,0,0,0-2.5,1.187v3.573a1.529,1.529,0,0,0,2.456,1.218v.348a.98.98,0,0,0,.748.95v1.8a1.607,1.607,0,0,0,3.117.551,1.607,1.607,0,0,0,3.117-.551c0-1.295,0-1.688,0-1.716,0,.054,0,1.3,0-.087a.98.98,0,0,0,.75-.951V18.56A1.53,1.53,0,0,0,112,17.342V13.785a.3.3,0,0,0-.605,0v3.557a.925.925,0,0,1-1.851,0V13.769a.925.925,0,1,1,1.851,0v.951A.3.3,0,0,0,111.7,15.023Zm-9.882,2.319a.925.925,0,0,1-1.851,0V13.769a.925.925,0,1,1,1.851,0Zm2.355,5.322a1,1,0,0,1-1-1V19.886h2s0-.083,0,1.775A1,1,0,0,1,104.175,22.663Zm3.02,0a1,1,0,0,1-1-1c0-1.759,0-1.772,0-1.775h2s0-.067,0,1.775A1,1,0,0,1,107.194,22.663Zm1.749-3.755a.373.373,0,0,1-.373.373H102.8a.373.373,0,0,1-.373-.373V13.517h6.519C108.944,13.821,108.944,18.639,108.944,18.908Z" transform="translate(-99.364 -8.269)"/>
      </g>
    </g>
    <g id="Group_112" data-name="Group 112" transform="translate(20.966 10.863)">
      <g id="Group_111" data-name="Group 111" transform="translate(0 0)">
        <path id="Path_72" data-name="Path 72" d="M199.859,74.346a.886.886,0,1,0,.886.886A.887.887,0,0,0,199.859,74.346Zm0,1.008a.122.122,0,1,1,.122-.122A.123.123,0,0,1,199.859,75.354Z" transform="translate(-198.973 -74.346)"/>
      </g>
    </g>
    <g id="Group_114" data-name="Group 114" transform="translate(24.059 10.863)">
      <g id="Group_113" data-name="Group 113" transform="translate(0 0)">
        <path id="Path_73" data-name="Path 73" d="M279.1,74.346a.886.886,0,1,0,.886.886A.887.887,0,0,0,279.1,74.346Zm0,1.008a.122.122,0,1,1,.122-.122A.122.122,0,0,1,279.1,75.354Z" transform="translate(-278.216 -74.346)"/>
      </g>
    </g>
  </g>
</svg>
