<svg xmlns="http://www.w3.org/2000/svg" width="13.697" height="16.09" viewBox="0 0 13.697 16.09">
  <g id="apple-logo" transform="translate(-38.192 0.59)">
    <g id="Group_267" data-name="Group 267" transform="translate(38.692 0)">
      <path id="Path_85" data-name="Path 85" d="M49.825,113.347a3.057,3.057,0,0,1-.622-1.876,2.861,2.861,0,0,1,.586-1.741,5.636,5.636,0,0,1,1.028-.993,4.528,4.528,0,0,0-.938-.841,3.464,3.464,0,0,0-1.92-.547,5.41,5.41,0,0,0-1.559.286,4.788,4.788,0,0,1-1.289.286,6.162,6.162,0,0,1-1.244-.252,6.389,6.389,0,0,0-1.6-.252,3.19,3.19,0,0,0-2.56,1.211,4.764,4.764,0,0,0-1.019,3.146,8.2,8.2,0,0,0,1.325,4.231q1.343,2.179,2.713,2.179a3.449,3.449,0,0,0,1.19-.286,3.684,3.684,0,0,1,1.28-.278,4.234,4.234,0,0,1,1.361.269,4.423,4.423,0,0,0,1.262.269q1.154,0,2.317-1.649a7.91,7.91,0,0,0,1.109-2.1A2.721,2.721,0,0,1,49.825,113.347Z" transform="translate(-38.692 -103.185)" fill="none" stroke="#000" stroke-width="1"/>
      <path id="Path_86" data-name="Path 86" d="M236.033,3.5a4.547,4.547,0,0,0,1.03-1.528,4.225,4.225,0,0,0,.321-1.506c0-.029,0-.066-.006-.111s-.005-.081-.005-.111a1.063,1.063,0,0,1-.028-.122A1.028,1.028,0,0,0,237.318,0a4.414,4.414,0,0,0-2.769,1.639,5.051,5.051,0,0,0-.864,2.846,6.189,6.189,0,0,0,1.152-.188A3.139,3.139,0,0,0,236.033,3.5Z" transform="translate(-227.972 0)" fill="none" stroke="#000" stroke-width="1"/>
    </g>
  </g>
</svg>
