<svg xmlns="http://www.w3.org/2000/svg" width="30" height="30" viewBox="0 0 30 30"><defs><style>.a,.c{fill:none;}.a{stroke:#000;}.b{stroke:none;}</style></defs><g transform="translate(-14 -467)"><g class="a" transform="translate(14 467)"><circle class="b" cx="15" cy="15" r="15"/><circle class="c" cx="15" cy="15" r="14.5"/></g><g transform="translate(21 428.394)"><path d="M8.788,59.606h0c-1.907,0-3.984-.06-6.171-.178A2.609,2.609,0,0,1,.18,57a32.358,32.358,0,0,1,0-6.8,2.624,2.624,0,0,1,2.435-2.422,93.627,93.627,0,0,1,11.544,0,2.6,2.6,0,0,1,2.436,2.421,32.433,32.433,0,0,1,0,6.8,2.6,2.6,0,0,1-2.433,2.424C12.5,59.546,10.7,59.606,8.788,59.606ZM8.342,48.25c-1.9,0-3.815.06-5.688.177A1.966,1.966,0,0,0,.82,50.275a31.722,31.722,0,0,0,0,6.663,1.952,1.952,0,0,0,1.832,1.847c2.176.117,4.241.177,6.136.177s3.685-.06,5.327-.177a1.973,1.973,0,0,0,1.837-1.846,31.731,31.731,0,0,0,0-6.663,1.97,1.97,0,0,0-1.834-1.848C12.188,48.31,10.244,48.25,8.342,48.25Zm-1.6,3.074v4.421l4.246-2.2Z" transform="translate(0)"/></g></g></svg>